<svg width="300" height="210" viewBox="0 0 300 210" fill="none" xmlns="http://www.w3.org/2000/svg">
<g clip-path="url(#clip0)">
<rect width="300" height="210" fill="white"/>
<path d="M4.86523 205.975L4.86523 202.454L6.0957 202.833L6.0957 202.963C5.91569 202.92 5.75505 202.898 5.61377 202.898C5.44743 202.898 5.3221 202.95 5.23779 203.052C5.17399 203.13 5.14209 203.329 5.14209 203.65L5.14209 204.016L8.33447 204.932C8.73551 205.048 8.98275 205.106 9.07617 205.106C9.16276 205.106 9.23454 205.07 9.2915 204.997C9.34619 204.924 9.37354 204.795 9.37354 204.611L9.37354 204.454L9.5 204.495L9.5 206.511L9.37354 206.474L9.37354 206.385C9.37354 206.207 9.34505 206.07 9.28809 205.975C9.24935 205.909 9.17985 205.849 9.07959 205.797C8.97705 205.742 8.76172 205.667 8.43359 205.571L5.14209 204.611L5.14209 204.888C5.14209 205.154 5.17627 205.37 5.24463 205.534C5.31299 205.695 5.41211 205.826 5.54199 205.927C5.67187 206.027 5.85645 206.109 6.0957 206.173L6.0957 206.299L4.86523 205.975ZM6.40674 201.494L8.80273 202.17C8.96452 202.216 9.06136 202.239 9.09326 202.239C9.12972 202.239 9.15934 202.229 9.18213 202.208C9.20492 202.185 9.21631 202.159 9.21631 202.129C9.21631 202.095 9.19808 202.054 9.16162 202.006C9.05908 201.876 8.91325 201.745 8.72412 201.613L8.80273 201.494C9.03971 201.649 9.23909 201.831 9.40088 202.041C9.52165 202.195 9.58203 202.344 9.58203 202.485C9.58203 202.578 9.55469 202.655 9.5 202.714C9.44303 202.773 9.3724 202.803 9.28809 202.803C9.20378 202.803 9.06364 202.774 8.86768 202.717L7.33643 202.273C7.08577 202.2 6.92855 202.164 6.86475 202.164C6.81462 202.164 6.7736 202.182 6.7417 202.218C6.7098 202.252 6.69385 202.3 6.69385 202.362C6.69385 202.412 6.70638 202.516 6.73145 202.673L6.59814 202.673L6.40674 201.494ZM5.45996 201.189C5.57161 201.338 5.64909 201.431 5.69238 201.47C5.73568 201.506 5.79834 201.539 5.88037 201.569L5.88037 201.682C5.72542 201.627 5.56478 201.524 5.39844 201.374C5.33919 201.319 5.24349 201.254 5.11133 201.179C4.94271 201.131 4.8584 201.192 4.8584 201.36C4.8584 201.49 4.89258 201.565 4.96094 201.586C4.97689 201.59 5.00537 201.586 5.04639 201.572C5.08512 201.559 5.11589 201.555 5.13867 201.562C5.21842 201.585 5.2583 201.639 5.2583 201.726C5.2583 201.838 5.19336 201.875 5.06348 201.839C4.97005 201.812 4.89258 201.744 4.83105 201.637C4.76725 201.53 4.73535 201.408 4.73535 201.271C4.73535 201.094 4.77978 200.975 4.86865 200.916C4.93701 200.87 5.01221 200.859 5.09424 200.882C5.20817 200.916 5.33008 201.019 5.45996 201.189ZM6.40674 199.61L7.96191 200.065C7.32617 199.639 6.90804 199.313 6.70752 199.087C6.507 198.86 6.40674 198.641 6.40674 198.431C6.40674 198.317 6.44434 198.224 6.51953 198.151C6.59473 198.076 6.69271 198.038 6.81348 198.038C6.95019 198.038 7.13249 198.071 7.36035 198.137L8.79932 198.554C8.96566 198.602 9.06706 198.626 9.10352 198.626C9.13542 198.626 9.16276 198.617 9.18555 198.599C9.20605 198.58 9.21631 198.561 9.21631 198.541C9.21631 198.513 9.2015 198.48 9.17187 198.441C9.07617 198.321 8.93034 198.188 8.73437 198.045L8.79932 197.939C9.10238 198.151 9.31885 198.351 9.44873 198.541C9.5376 198.673 9.58203 198.791 9.58203 198.896C9.58203 198.98 9.55583 199.048 9.50342 199.098C9.45329 199.148 9.38493 199.173 9.29834 199.173C9.18896 199.173 9.00098 199.134 8.73437 199.057L7.36035 198.66C7.18945 198.61 7.05615 198.585 6.96045 198.585C6.91488 198.585 6.87842 198.6 6.85107 198.629C6.82145 198.659 6.80664 198.695 6.80664 198.739C6.80664 198.803 6.83398 198.879 6.88867 198.968C6.99121 199.136 7.16097 199.312 7.39795 199.494C7.63265 199.676 7.93343 199.869 8.30029 200.072C8.49398 200.179 8.70589 200.268 8.93603 200.338L9.5 200.509L9.5 201.022L7.36035 200.4C7.10286 200.327 6.94792 200.291 6.89551 200.291C6.84538 200.291 6.80208 200.311 6.76562 200.352C6.72689 200.391 6.70752 200.44 6.70752 200.499C6.70752 200.526 6.71208 200.574 6.72119 200.643L6.7417 200.772L6.61865 200.793L6.40674 199.61ZM4.63965 195.601L7.9585 196.562C7.33415 196.147 6.91943 195.823 6.71435 195.591C6.50928 195.358 6.40674 195.136 6.40674 194.924C6.40674 194.815 6.44434 194.724 6.51953 194.651C6.59473 194.578 6.69499 194.542 6.82031 194.542C6.9707 194.542 7.15299 194.573 7.36719 194.637L8.79932 195.054C8.97249 195.107 9.0682 195.133 9.08643 195.133C9.11833 195.133 9.14453 195.124 9.16504 195.105C9.18555 195.085 9.1958 195.062 9.1958 195.037C9.1958 195.007 9.18099 194.973 9.15137 194.935C9.05111 194.805 8.91211 194.676 8.73437 194.548L8.79932 194.442C8.92008 194.52 9.05338 194.628 9.19922 194.767C9.34277 194.904 9.44303 195.022 9.5 195.123C9.55469 195.221 9.58203 195.308 9.58203 195.386C9.58203 195.47 9.55469 195.54 9.5 195.594C9.44759 195.647 9.37923 195.673 9.29492 195.673C9.19466 195.673 9.00781 195.633 8.73437 195.553L7.36719 195.16C7.19629 195.11 7.06185 195.085 6.96387 195.085C6.91829 195.085 6.88184 195.1 6.85449 195.129C6.82715 195.157 6.81348 195.193 6.81348 195.239C6.81348 195.305 6.83854 195.38 6.88867 195.464C6.98437 195.619 7.16211 195.798 7.42187 196.001C7.49251 196.056 7.77734 196.238 8.27637 196.548C8.43587 196.644 8.61019 196.722 8.79932 196.784L9.5 197.002L9.5 197.515L5.58984 196.391L5.16602 196.271C5.10677 196.271 5.05436 196.296 5.00879 196.346C4.96322 196.394 4.94043 196.453 4.94043 196.524C4.94043 196.565 4.94727 196.628 4.96094 196.712L4.97119 196.784L4.83789 196.784L4.63965 195.601ZM4.63965 191.486L9.60596 194.09L9.60596 194.391L4.63965 191.77L4.63965 191.486ZM4.86523 191.182L4.86523 187.661L6.0957 188.041L6.0957 188.17C5.91569 188.127 5.75504 188.105 5.61377 188.105C5.44743 188.105 5.3221 188.157 5.23779 188.259C5.17399 188.337 5.14209 188.536 5.14209 188.857L5.14209 189.223L8.33447 190.139C8.73551 190.255 8.98275 190.313 9.07617 190.313C9.16276 190.313 9.23454 190.277 9.2915 190.204C9.34619 190.131 9.37353 190.002 9.37353 189.818L9.37353 189.661L9.5 189.702L9.5 191.718L9.37353 191.681L9.37353 191.592C9.37353 191.414 9.34505 191.277 9.28809 191.182C9.24935 191.116 9.17985 191.056 9.07959 191.004C8.97705 190.949 8.76172 190.874 8.43359 190.778L5.14209 189.818L5.14209 190.095C5.14209 190.361 5.17627 190.577 5.24463 190.741C5.31299 190.903 5.41211 191.034 5.54199 191.134C5.67187 191.234 5.85644 191.316 6.0957 191.38L6.0957 191.506L4.86523 191.182ZM4.86523 187.217L4.86523 185.392C4.86523 184.913 4.96891 184.555 5.17627 184.318C5.38135 184.081 5.632 183.963 5.92822 183.963C6.16292 183.963 6.39079 184.038 6.61182 184.188C6.83284 184.339 7.01286 184.562 7.15185 184.858C7.28857 185.155 7.35693 185.475 7.35693 185.819C7.35693 186.033 7.3182 186.305 7.24072 186.636L8.50537 187.005C8.80615 187.091 9.00439 187.135 9.1001 187.135C9.17301 187.135 9.2334 187.104 9.28125 187.042C9.3291 186.981 9.35986 186.834 9.37353 186.602L9.5 186.636L9.5 188.478L9.37353 188.44C9.37353 188.199 9.33252 188.031 9.25049 187.938C9.16618 187.842 8.93603 187.74 8.56006 187.63L5.92139 186.865C5.60465 186.774 5.39274 186.728 5.28564 186.728C5.20589 186.728 5.13981 186.761 5.0874 186.827C5.03499 186.891 5.00309 187.033 4.9917 187.254L4.86523 187.217ZM7.02539 186.578C7.09147 186.32 7.12451 186.113 7.12451 185.956C7.12451 185.707 7.07324 185.482 6.9707 185.279C6.86816 185.074 6.71435 184.914 6.50928 184.8C6.3042 184.684 6.09114 184.626 5.87012 184.626C5.63997 184.626 5.45768 184.697 5.32324 184.838C5.1888 184.979 5.12158 185.193 5.12158 185.48C5.12158 185.635 5.14095 185.823 5.17969 186.044L7.02539 186.578ZM6.40332 182.544C6.40332 182.449 6.4375 182.367 6.50586 182.298C6.57194 182.23 6.65283 182.196 6.74853 182.196C6.84424 182.196 6.92627 182.23 6.99463 182.298C7.06299 182.367 7.09717 182.449 7.09717 182.544C7.09717 182.64 7.06299 182.722 6.99463 182.791C6.92627 182.859 6.84424 182.893 6.74853 182.893C6.65283 182.893 6.57194 182.859 6.50586 182.791C6.4375 182.722 6.40332 182.64 6.40332 182.544ZM8.87793 183.269C8.87793 183.173 8.91211 183.092 8.98047 183.026C9.04655 182.96 9.12744 182.927 9.22314 182.927C9.31657 182.927 9.39746 182.961 9.46582 183.03C9.5319 183.096 9.56494 183.176 9.56494 183.269C9.56494 183.365 9.5319 183.447 9.46582 183.515C9.39746 183.581 9.31657 183.614 9.22314 183.614C9.12744 183.614 9.04655 183.581 8.98047 183.515C8.91211 183.447 8.87793 183.365 8.87793 183.269Z" fill="#010101"/>
<path d="M40.9663 204.953L41.6807 205.834C41.6556 205.695 41.6431 205.567 41.6431 205.448C41.6431 205.334 41.6499 205.229 41.6636 205.134C41.6773 205.036 41.7194 204.828 41.7901 204.512C41.863 204.193 41.8994 203.915 41.8994 203.678C41.8994 203.425 41.855 203.211 41.7661 203.035C41.6795 202.857 41.5337 202.685 41.3286 202.519L41.3833 202.406C41.7206 202.641 41.9632 202.918 42.1113 203.237C42.2617 203.556 42.3369 203.894 42.3369 204.252C42.3369 204.45 42.2982 204.721 42.2207 205.065C42.1045 205.592 42.0464 205.96 42.0464 206.169C42.0464 206.249 42.0521 206.314 42.0635 206.364C42.0749 206.414 42.1022 206.49 42.1455 206.59L42.0532 206.668L40.9458 205.267C40.8866 205.7 40.6963 206.028 40.375 206.251C40.0537 206.475 39.7108 206.586 39.3462 206.586C38.8472 206.586 38.3311 206.436 37.7979 206.135C37.2647 205.832 36.8522 205.446 36.5606 204.977C36.2666 204.505 36.1196 204.042 36.1196 203.589C36.1196 203.252 36.188 202.965 36.3247 202.728C36.4614 202.488 36.6608 202.304 36.9229 202.174C37.1826 202.044 37.4492 201.979 37.7227 201.979C38.2468 201.979 38.7777 202.128 39.3154 202.427C39.8532 202.725 40.2611 203.097 40.5391 203.541C40.8148 203.983 40.9572 204.454 40.9663 204.953ZM36.3384 203.671C36.3384 203.899 36.3954 204.122 36.5093 204.341C36.6209 204.557 36.8055 204.773 37.063 204.987C37.3182 205.201 37.6532 205.394 38.0679 205.564C38.5783 205.772 39.0602 205.875 39.5137 205.875C39.8373 205.875 40.1244 205.792 40.375 205.626C40.6234 205.46 40.7476 205.204 40.7476 204.86C40.7476 204.655 40.6963 204.452 40.5938 204.252C40.4912 204.051 40.3169 203.844 40.0708 203.63C39.7564 203.356 39.3565 203.127 38.8711 202.943C38.3858 202.758 37.9346 202.666 37.5176 202.666C37.21 202.666 36.9365 202.749 36.6973 202.916C36.458 203.082 36.3384 203.334 36.3384 203.671ZM37.8491 198.646L39.8862 199.241C40.1893 199.33 40.3807 199.375 40.4605 199.375C40.5015 199.375 40.5322 199.368 40.5527 199.354C40.571 199.338 40.5801 199.318 40.5801 199.292C40.5801 199.254 40.563 199.212 40.5288 199.166C40.4924 199.118 40.3511 199 40.105 198.811L40.1836 198.708C40.4684 198.888 40.6781 199.073 40.8125 199.262C40.8991 199.387 40.9424 199.508 40.9424 199.624C40.9424 199.713 40.9173 199.782 40.8672 199.833C40.8171 199.883 40.7521 199.908 40.6724 199.908C40.5949 199.908 40.4924 199.893 40.3648 199.863C40.1961 199.827 39.8293 199.723 39.2642 199.552C39.8999 199.94 40.3386 200.264 40.5801 200.526C40.8216 200.786 40.9424 201.028 40.9424 201.251C40.9424 201.356 40.9059 201.445 40.833 201.518C40.7601 201.59 40.6678 201.627 40.5562 201.627C40.3853 201.627 40.1232 201.577 39.77 201.477L38.7139 201.179C38.461 201.106 38.3037 201.07 38.2422 201.07C38.2149 201.07 38.1921 201.08 38.1738 201.101C38.1533 201.119 38.1431 201.139 38.1431 201.162C38.1431 201.21 38.1602 201.258 38.1944 201.306C38.2285 201.354 38.355 201.462 38.5737 201.63L38.4986 201.736C38.2342 201.565 38.0394 201.384 37.9141 201.193C37.8161 201.047 37.7671 200.913 37.7671 200.79C37.7671 200.705 37.7944 200.637 37.8491 200.584C37.9015 200.53 37.9699 200.502 38.0542 200.502C38.1773 200.502 38.3972 200.548 38.7139 200.639L39.8179 200.96C40.1187 201.049 40.3089 201.094 40.3887 201.094C40.432 201.094 40.4673 201.08 40.4946 201.053C40.5197 201.023 40.5322 200.984 40.5322 200.937C40.5322 200.861 40.4946 200.763 40.4194 200.643C40.3443 200.522 40.1779 200.361 39.9204 200.161C39.6607 199.958 39.418 199.792 39.1924 199.662C38.9645 199.529 38.6034 199.389 38.1089 199.241L37.8491 199.166L37.8491 198.646ZM37.7671 195.157L40.0845 195.823L40.3955 195.898C40.4251 195.905 40.4502 195.909 40.4707 195.909C40.5072 195.909 40.5391 195.897 40.5664 195.875C40.5869 195.856 40.5972 195.833 40.5972 195.806C40.5972 195.777 40.579 195.738 40.5425 195.69C40.4764 195.601 40.3397 195.483 40.1323 195.334L40.2144 195.218C40.4513 195.375 40.6325 195.537 40.7578 195.704C40.8809 195.87 40.9424 196.024 40.9424 196.165C40.9424 196.263 40.9173 196.337 40.8672 196.387C40.8194 196.435 40.7487 196.459 40.6553 196.459C40.5436 196.459 40.3967 196.434 40.2144 196.384L39.958 196.312C40.3477 196.611 40.62 196.885 40.7749 197.136C40.8866 197.316 40.9424 197.492 40.9424 197.666C40.9424 197.832 40.874 197.975 40.7373 198.096C40.5983 198.217 40.4081 198.277 40.1665 198.277C39.8042 198.277 39.4225 198.169 39.0215 197.953C38.6182 197.734 38.2958 197.457 38.0542 197.122C37.8628 196.86 37.7671 196.613 37.7671 196.38C37.7671 196.241 37.8036 196.126 37.8765 196.035C37.9494 195.942 38.0702 195.871 38.2388 195.823L37.8491 195.7L37.7671 195.157ZM37.9448 196.374C37.9448 196.519 38.0132 196.674 38.1499 196.838C38.3436 197.071 38.6307 197.278 39.0112 197.46C39.3918 197.64 39.7359 197.73 40.0435 197.73C40.1984 197.73 40.3215 197.692 40.4126 197.614C40.5015 197.537 40.5459 197.448 40.5459 197.348C40.5459 197.099 40.3625 196.829 39.9956 196.538C39.508 196.148 39.0078 195.953 38.4951 195.953C38.3014 195.953 38.1613 195.991 38.0747 196.066C37.9881 196.141 37.9448 196.244 37.9448 196.374ZM36.1196 195.417L37.1997 195.16L37.1997 195.232L36.5093 195.81L37.1997 196.9L37.1997 196.992L36.1196 195.929L36.1196 195.417ZM41.2705 197.201C41.2705 197.103 41.3036 197.021 41.3696 196.955C41.438 196.886 41.52 196.852 41.6157 196.852C41.7114 196.852 41.7923 196.886 41.8584 196.955C41.9268 197.023 41.961 197.105 41.961 197.201C41.961 197.296 41.9268 197.378 41.8584 197.447C41.7923 197.513 41.7114 197.546 41.6157 197.546C41.52 197.546 41.438 197.513 41.3696 197.447C41.3036 197.378 41.2705 197.296 41.2705 197.201ZM37.7671 193.396L39.3223 193.851C38.6865 193.425 38.2684 193.099 38.0679 192.874C37.8674 192.646 37.7671 192.427 37.7671 192.217C37.7671 192.103 37.8047 192.01 37.8799 191.937C37.9551 191.862 38.0531 191.824 38.1738 191.824C38.3106 191.824 38.4929 191.857 38.7207 191.923L40.1597 192.34C40.326 192.388 40.4274 192.412 40.4639 192.412C40.4958 192.412 40.5231 192.403 40.5459 192.385C40.5664 192.367 40.5767 192.347 40.5767 192.327C40.5767 192.299 40.5619 192.266 40.5322 192.228C40.4365 192.107 40.2907 191.975 40.0947 191.831L40.1597 191.725C40.4627 191.937 40.6792 192.138 40.8091 192.327C40.898 192.459 40.9424 192.577 40.9424 192.682C40.9424 192.766 40.9162 192.834 40.8638 192.884C40.8137 192.934 40.7453 192.959 40.6587 192.959C40.5493 192.959 40.3613 192.92 40.0947 192.843L38.7207 192.446C38.5498 192.396 38.4165 192.371 38.3208 192.371C38.2752 192.371 38.2388 192.386 38.2114 192.416C38.1818 192.445 38.167 192.482 38.167 192.525C38.167 192.589 38.1944 192.665 38.249 192.754C38.3516 192.923 38.5213 193.098 38.7583 193.28C38.993 193.463 39.2938 193.655 39.6607 193.858C39.8543 193.965 40.0663 194.054 40.2964 194.125L40.8604 194.295L40.8604 194.808L38.7207 194.186C38.4632 194.113 38.3083 194.077 38.2559 194.077C38.2057 194.077 38.1624 194.097 38.126 194.138C38.0873 194.177 38.0679 194.226 38.0679 194.285C38.0679 194.312 38.0724 194.36 38.0816 194.429L38.1021 194.559L37.979 194.579L37.7671 193.396ZM36 188.772L40.9663 191.376L40.9663 191.677L36 189.056L36 188.772ZM38.2935 187.767L38.2935 185.627L37.1485 185.289C36.9251 185.225 36.752 185.193 36.6289 185.193C36.5697 185.193 36.5195 185.208 36.4785 185.238C36.4352 185.265 36.4033 185.308 36.3828 185.368C36.3623 185.427 36.3521 185.543 36.3521 185.716L36.2256 185.682L36.2256 183.816L36.3521 183.857C36.3498 184.014 36.3657 184.132 36.3999 184.209C36.4478 184.318 36.5093 184.399 36.5845 184.452C36.6916 184.527 36.8796 184.603 37.1485 184.681L39.9478 185.498C40.1802 185.566 40.3465 185.6 40.4468 185.6C40.5334 185.6 40.5995 185.57 40.645 185.511C40.6883 185.45 40.718 185.305 40.7339 185.077L40.8604 185.115L40.8604 186.919L40.7339 186.872C40.7293 186.694 40.7134 186.575 40.686 186.516C40.645 186.425 40.5926 186.359 40.5288 186.318C40.44 186.259 40.2463 186.186 39.9478 186.099L38.5293 185.682L38.5293 187.832L39.9478 188.252C40.1756 188.319 40.342 188.352 40.4468 188.352C40.5334 188.352 40.5995 188.322 40.645 188.263C40.6883 188.203 40.718 188.06 40.7339 187.832L40.8604 187.859L40.8604 189.678L40.7339 189.633C40.7293 189.453 40.7134 189.334 40.686 189.274C40.645 189.183 40.5926 189.116 40.5288 189.073C40.4354 189.014 40.2417 188.941 39.9478 188.854L37.1485 188.034C36.9206 187.968 36.7474 187.935 36.6289 187.935C36.5697 187.935 36.5195 187.949 36.4785 187.979C36.4352 188.006 36.4033 188.051 36.3828 188.112C36.3623 188.172 36.3521 188.289 36.3521 188.464L36.2256 188.423L36.2256 186.595L36.3521 186.632C36.3498 186.785 36.3657 186.898 36.3999 186.971C36.4455 187.078 36.5059 187.156 36.5811 187.207C36.6813 187.275 36.8705 187.35 37.1485 187.432L38.2935 187.767ZM37.8491 181.14L39.8862 181.734C40.1893 181.823 40.3807 181.868 40.4605 181.868C40.5015 181.868 40.5322 181.861 40.5527 181.847C40.571 181.831 40.5801 181.811 40.5801 181.786C40.5801 181.747 40.563 181.705 40.5288 181.659C40.4924 181.611 40.3511 181.493 40.105 181.304L40.1836 181.201C40.4684 181.381 40.6781 181.566 40.8125 181.755C40.8991 181.88 40.9424 182.001 40.9424 182.117C40.9424 182.206 40.9173 182.276 40.8672 182.326C40.8171 182.376 40.7521 182.401 40.6724 182.401C40.5949 182.401 40.4924 182.386 40.3648 182.356C40.1961 182.32 39.8293 182.216 39.2642 182.045C39.8999 182.433 40.3386 182.757 40.5801 183.02C40.8216 183.279 40.9424 183.521 40.9424 183.744C40.9424 183.849 40.9059 183.938 40.833 184.011C40.7601 184.084 40.6678 184.12 40.5562 184.12C40.3853 184.12 40.1232 184.07 39.77 183.97L38.7139 183.672C38.461 183.599 38.3037 183.563 38.2422 183.563C38.2149 183.563 38.1921 183.573 38.1738 183.594C38.1533 183.612 38.1431 183.632 38.1431 183.655C38.1431 183.703 38.1602 183.751 38.1944 183.799C38.2285 183.847 38.355 183.955 38.5737 184.124L38.4985 184.229C38.2342 184.059 38.0394 183.877 37.9141 183.686C37.8161 183.54 37.7671 183.406 37.7671 183.283C37.7671 183.198 37.7944 183.13 37.8491 183.078C37.9015 183.023 37.9699 182.996 38.0542 182.996C38.1773 182.996 38.3971 183.041 38.7139 183.132L39.8179 183.454C40.1187 183.542 40.3089 183.587 40.3887 183.587C40.432 183.587 40.4673 183.573 40.4946 183.546C40.5197 183.516 40.5322 183.478 40.5322 183.43C40.5322 183.354 40.4946 183.257 40.4194 183.136C40.3443 183.015 40.1779 182.854 39.9204 182.654C39.6607 182.451 39.418 182.285 39.1924 182.155C38.9645 182.023 38.6034 181.882 38.1089 181.734L37.8491 181.659L37.8491 181.14ZM37.7671 179.817C37.8993 179.739 38.0235 179.686 38.1397 179.656C38.2536 179.627 38.4792 179.597 38.8164 179.567L40.4981 179.417C40.334 179.28 40.0742 179.082 39.7188 178.822C39.5456 178.697 39.3097 178.542 39.0112 178.357C38.829 178.246 38.7013 178.177 38.6284 178.152C38.592 178.139 38.5544 178.132 38.5156 178.132C38.4906 178.132 38.4701 178.14 38.4541 178.156C38.4382 178.172 38.4199 178.214 38.3994 178.282C38.3766 178.348 38.3368 178.404 38.2798 178.45C38.2206 178.493 38.1533 178.515 38.0781 178.515C37.9847 178.515 37.9095 178.487 37.8526 178.433C37.7956 178.378 37.7671 178.31 37.7671 178.228C37.7671 178.127 37.8093 178.042 37.8936 177.971C37.9756 177.901 38.0895 177.865 38.2354 177.865C38.4154 177.865 38.6216 177.927 38.854 178.05C39.0842 178.173 39.4385 178.41 39.917 178.761C40.3955 179.112 40.9173 179.537 41.4824 180.036C41.8721 180.38 42.117 180.635 42.2173 180.801C42.3198 180.968 42.3711 181.11 42.3711 181.229C42.3711 181.299 42.3438 181.361 42.2891 181.413C42.2367 181.468 42.1751 181.495 42.1045 181.495C42.0156 181.495 41.9347 181.458 41.8618 181.382C41.7889 181.309 41.7525 181.23 41.7525 181.143C41.7525 181.097 41.7627 181.06 41.7832 181.03C41.7946 181.012 41.8265 180.992 41.8789 180.969C41.9336 180.948 41.9701 180.929 41.9883 180.911C41.9997 180.899 42.0054 180.886 42.0054 180.87C42.0054 180.856 41.994 180.832 41.9712 180.798C41.8937 180.673 41.7707 180.527 41.6021 180.36C41.3788 180.142 41.1965 179.98 41.0552 179.875L38.8882 180.066C38.5305 180.098 38.3128 180.146 38.2354 180.21C38.1579 180.274 38.1192 180.381 38.1192 180.531C38.1192 180.579 38.126 180.665 38.1397 180.788L38.0132 180.818L37.7671 179.817ZM39.5718 176.99C39.6857 177.006 39.7803 177.014 39.8555 177.014C40.0583 177.014 40.2315 176.942 40.375 176.799C40.5163 176.655 40.5869 176.481 40.5869 176.276C40.5869 176.112 40.5539 175.955 40.4878 175.804C40.4194 175.652 40.2702 175.426 40.0401 175.127L40.1392 175.056C40.6747 175.596 40.9424 176.111 40.9424 176.601C40.9424 176.933 40.8376 177.184 40.6279 177.353C40.4183 177.521 40.187 177.605 39.9341 177.605C39.5946 177.605 39.2471 177.501 38.8916 177.291C38.5361 177.081 38.2604 176.818 38.0645 176.501C37.8662 176.185 37.7671 175.859 37.7671 175.524C37.7671 175.282 37.8161 175.104 37.9141 174.987C38.0121 174.871 38.1283 174.813 38.2627 174.813C38.4518 174.813 38.633 174.888 38.8062 175.039C39.0318 175.237 39.214 175.528 39.353 175.914C39.4465 176.169 39.5194 176.528 39.5718 176.99ZM39.4043 176.966C39.3656 176.629 39.2995 176.354 39.2061 176.143C39.0807 175.862 38.9315 175.653 38.7583 175.514C38.5829 175.372 38.4165 175.302 38.2593 175.302C38.1636 175.302 38.0861 175.333 38.0269 175.394C37.9676 175.453 37.938 175.539 37.938 175.65C37.938 175.883 38.0622 176.13 38.3106 176.392C38.5567 176.652 38.9212 176.843 39.4043 176.966ZM36.1196 174.98L37.1997 174.724L37.1997 174.796L36.5093 175.374L37.1997 176.464L37.1997 176.556L36.1196 175.493L36.1196 174.98ZM41.2705 176.73C41.2705 176.632 41.3036 176.55 41.3696 176.484C41.438 176.416 41.52 176.382 41.6157 176.382C41.7114 176.382 41.7923 176.416 41.8584 176.484C41.9268 176.553 41.961 176.635 41.961 176.73C41.961 176.826 41.9268 176.908 41.8584 176.977C41.7923 177.043 41.7114 177.076 41.6157 177.076C41.52 177.076 41.438 177.043 41.3696 176.977C41.3036 176.908 41.2705 176.826 41.2705 176.73ZM37.7671 173.169L39.3223 173.624C38.6865 173.197 38.2684 172.872 38.0679 172.646C37.8674 172.418 37.7671 172.199 37.7671 171.99C37.7671 171.876 37.8047 171.782 37.8799 171.709C37.9551 171.634 38.0531 171.597 38.1738 171.597C38.3106 171.597 38.4929 171.63 38.7207 171.696L40.1597 172.113C40.326 172.161 40.4274 172.185 40.4639 172.185C40.4958 172.185 40.5231 172.175 40.5459 172.157C40.5664 172.139 40.5767 172.12 40.5767 172.099C40.5767 172.072 40.5619 172.039 40.5322 172C40.4365 171.879 40.2907 171.747 40.0947 171.604L40.1597 171.498C40.4627 171.709 40.6792 171.91 40.8091 172.099C40.898 172.231 40.9424 172.35 40.9424 172.455C40.9424 172.539 40.9162 172.606 40.8638 172.656C40.8137 172.706 40.7453 172.731 40.6587 172.731C40.5493 172.731 40.3613 172.693 40.0947 172.615L38.7207 172.219C38.5498 172.169 38.4165 172.144 38.3208 172.144C38.2752 172.144 38.2388 172.158 38.2114 172.188C38.1818 172.218 38.167 172.254 38.167 172.297C38.167 172.361 38.1944 172.437 38.249 172.526C38.3516 172.695 38.5213 172.87 38.7583 173.053C38.993 173.235 39.2938 173.428 39.6607 173.63C39.8543 173.737 40.0663 173.826 40.2964 173.897L40.8604 174.068L40.8604 174.581L38.7207 173.958C38.4632 173.886 38.3083 173.849 38.2559 173.849C38.2057 173.849 38.1624 173.87 38.126 173.911C38.0873 173.949 38.0679 173.998 38.0679 174.058C38.0679 174.085 38.0724 174.133 38.0816 174.201L38.1021 174.331L37.979 174.352L37.7671 173.169ZM37.7637 169.727C37.7637 169.631 37.7979 169.549 37.8662 169.481C37.9323 169.413 38.0132 169.378 38.1089 169.378C38.2046 169.378 38.2866 169.413 38.355 169.481C38.4234 169.549 38.4575 169.631 38.4575 169.727C38.4575 169.823 38.4234 169.905 38.355 169.973C38.2866 170.042 38.2046 170.076 38.1089 170.076C38.0132 170.076 37.9323 170.042 37.8662 169.973C37.7979 169.905 37.7637 169.823 37.7637 169.727ZM40.2383 170.452C40.2383 170.356 40.2725 170.275 40.3408 170.209C40.4069 170.143 40.4878 170.11 40.5835 170.11C40.6769 170.11 40.7578 170.144 40.8262 170.212C40.8923 170.278 40.9253 170.358 40.9253 170.452C40.9253 170.547 40.8923 170.629 40.8262 170.698C40.7578 170.764 40.6769 170.797 40.5835 170.797C40.4878 170.797 40.4069 170.764 40.3408 170.698C40.2725 170.629 40.2383 170.547 40.2383 170.452ZM37.7637 167.396C37.7637 167.3 37.7979 167.218 37.8662 167.15C37.9323 167.082 38.0132 167.047 38.1089 167.047C38.2046 167.047 38.2866 167.082 38.355 167.15C38.4234 167.218 38.4575 167.3 38.4575 167.396C38.4575 167.492 38.4234 167.574 38.355 167.642C38.2866 167.71 38.2046 167.745 38.1089 167.745C38.0132 167.745 37.9323 167.71 37.8662 167.642C37.7979 167.574 37.7637 167.492 37.7637 167.396ZM40.2383 168.121C40.2383 168.025 40.2725 167.944 40.3408 167.878C40.4069 167.812 40.4878 167.779 40.5835 167.779C40.6769 167.779 40.7578 167.813 40.8262 167.881C40.8923 167.947 40.9253 168.027 40.9253 168.121C40.9253 168.216 40.8923 168.298 40.8262 168.367C40.7578 168.433 40.6769 168.466 40.5835 168.466C40.4878 168.466 40.4069 168.433 40.3408 168.367C40.2725 168.298 40.2383 168.216 40.2383 168.121Z" fill="#010101"/>
<path d="M67.2256 205.906L67.2256 204.081C67.2256 203.603 67.3293 203.245 67.5366 203.008C67.7417 202.771 67.9924 202.652 68.2886 202.652C68.5233 202.652 68.7512 202.728 68.9722 202.878C69.1932 203.028 69.3732 203.252 69.5122 203.548C69.6489 203.844 69.7173 204.164 69.7173 204.508C69.7173 204.722 69.6786 204.995 69.6011 205.325L70.8657 205.694C71.1665 205.781 71.3648 205.824 71.4605 205.824C71.5334 205.824 71.5938 205.793 71.6416 205.732C71.6895 205.67 71.7202 205.523 71.7339 205.291L71.8604 205.325L71.8604 207.167L71.7339 207.13C71.7339 206.888 71.6929 206.721 71.6109 206.627C71.5265 206.532 71.2964 206.429 70.9204 206.32L68.2818 205.554C67.965 205.463 67.7531 205.417 67.646 205.417C67.5663 205.417 67.5002 205.451 67.4478 205.517C67.3954 205.58 67.3635 205.723 67.3521 205.944L67.2256 205.906ZM69.3858 205.267C69.4518 205.01 69.4849 204.802 69.4849 204.645C69.4849 204.397 69.4336 204.171 69.3311 203.968C69.2285 203.763 69.0747 203.604 68.8696 203.49C68.6646 203.374 68.4515 203.315 68.2305 203.315C68.0003 203.315 67.818 203.386 67.6836 203.527C67.5492 203.669 67.4819 203.883 67.4819 204.17C67.4819 204.325 67.5013 204.513 67.5401 204.734L69.3858 205.267ZM67 200.667L70.3189 201.627C69.6945 201.212 69.2798 200.889 69.0747 200.656C68.8696 200.424 68.7671 200.202 68.7671 199.99C68.7671 199.88 68.8047 199.789 68.8799 199.716C68.9551 199.643 69.0554 199.607 69.1807 199.607C69.3311 199.607 69.5134 199.639 69.7276 199.703L71.1597 200.12C71.3329 200.172 71.4286 200.198 71.4468 200.198C71.4787 200.198 71.5049 200.189 71.5254 200.171C71.5459 200.15 71.5562 200.128 71.5562 200.103C71.5562 200.073 71.5414 200.039 71.5117 200C71.4115 199.87 71.2725 199.741 71.0947 199.614L71.1597 199.508C71.2805 199.585 71.4138 199.694 71.5596 199.833C71.7031 199.969 71.8034 200.088 71.8604 200.188C71.9151 200.286 71.9424 200.374 71.9424 200.451C71.9424 200.535 71.9151 200.605 71.8604 200.66C71.808 200.712 71.7396 200.738 71.6553 200.738C71.555 200.738 71.3682 200.698 71.0947 200.619L69.7276 200.226C69.5567 200.175 69.4222 200.15 69.3242 200.15C69.2787 200.15 69.2422 200.165 69.2149 200.195C69.1875 200.222 69.1738 200.259 69.1738 200.304C69.1738 200.37 69.1989 200.445 69.249 200.53C69.3447 200.685 69.5225 200.864 69.7822 201.066C69.8529 201.121 70.1377 201.303 70.6367 201.613C70.7962 201.709 70.9706 201.788 71.1597 201.849L71.8604 202.068L71.8604 202.581L67.9502 201.456L67.5264 201.336C67.4671 201.336 67.4147 201.361 67.3692 201.412C67.3236 201.459 67.3008 201.519 67.3008 201.589C67.3008 201.63 67.3076 201.693 67.3213 201.777L67.3316 201.849L67.1983 201.849L67 200.667ZM69.5122 195.646C69.4803 195.577 69.4427 195.556 69.3994 195.581C69.3972 195.581 69.3789 195.607 69.3447 195.659C69.3106 195.709 69.2741 195.745 69.2354 195.765C69.1602 195.811 69.0861 195.823 69.0132 195.803C68.938 195.785 68.8788 195.736 68.8355 195.656C68.7899 195.576 68.7808 195.492 68.8081 195.403C68.84 195.303 68.9061 195.23 69.0064 195.184C69.1066 195.136 69.216 195.132 69.3345 195.17C69.4689 195.216 69.5658 195.312 69.625 195.458C69.6729 195.578 69.6979 195.818 69.7002 196.175L70.8862 196.521C71.1916 196.609 71.383 196.654 71.4605 196.654C71.5402 196.654 71.5801 196.626 71.5801 196.572C71.5801 196.526 71.563 196.484 71.5288 196.445C71.4696 196.382 71.3283 196.263 71.105 196.09L71.1836 195.987C71.6895 196.306 71.9424 196.612 71.9424 196.903C71.9424 197.092 71.8524 197.187 71.6724 197.187C71.5995 197.187 71.4969 197.172 71.3648 197.143C71.1825 197.102 70.8156 196.998 70.2642 196.832C70.8794 197.208 71.318 197.531 71.5801 197.802C71.8216 198.055 71.9424 198.298 71.9424 198.53C71.9424 198.635 71.9059 198.724 71.833 198.797C71.7601 198.87 71.6678 198.906 71.5562 198.906C71.3875 198.906 71.1255 198.856 70.77 198.756L69.7139 198.458C69.4541 198.386 69.2969 198.349 69.2422 198.349C69.1761 198.349 69.1431 198.38 69.1431 198.441C69.1431 198.496 69.1602 198.544 69.1944 198.585C69.2468 198.646 69.3732 198.755 69.5737 198.91L69.4986 199.016C69.0109 198.701 68.7671 198.386 68.7671 198.069C68.7671 197.877 68.8628 197.782 69.0542 197.782C69.1818 197.782 69.4017 197.827 69.7139 197.918L70.8179 198.24C71.1232 198.329 71.3135 198.373 71.3887 198.373C71.4844 198.373 71.5322 198.321 71.5322 198.216C71.5322 198.015 71.3272 197.756 70.917 197.437C70.6595 197.236 70.4168 197.07 70.189 196.937C69.9452 196.799 69.5851 196.66 69.1089 196.521L68.8491 196.445L68.8491 195.926L69.5703 196.138C69.5726 195.901 69.5532 195.737 69.5122 195.646ZM69.8369 192.163C70.1856 192.163 70.5239 192.254 70.8521 192.436C71.1916 192.623 71.457 192.875 71.6485 193.191C71.8444 193.515 71.9424 193.829 71.9424 194.135C71.9424 194.447 71.8433 194.702 71.645 194.9C71.4445 195.096 71.1859 195.194 70.8692 195.194C70.5296 195.194 70.1924 195.097 69.8574 194.904C69.5202 194.708 69.2547 194.45 69.061 194.131C68.8651 193.81 68.7671 193.499 68.7671 193.198C68.7671 192.934 68.8662 192.686 69.0645 192.453C69.1305 192.387 69.1966 192.32 69.2627 192.251C69.3265 192.181 69.3584 192.099 69.3584 192.005C69.3584 191.958 69.3504 191.915 69.3345 191.879C69.3163 191.84 69.2889 191.813 69.2525 191.797C69.2342 191.788 69.216 191.789 69.1978 191.8C69.175 191.844 69.1203 191.905 69.0337 191.985C68.9562 192.03 68.881 192.043 68.8081 192.022C68.7329 192.004 68.6737 191.955 68.6304 191.875C68.5871 191.796 68.578 191.711 68.603 191.623C68.6349 191.522 68.701 191.449 68.8013 191.404C68.9015 191.356 69.0109 191.351 69.1294 191.39C69.2638 191.436 69.3607 191.531 69.4199 191.677C69.4587 191.775 69.478 191.952 69.478 192.207C69.5715 192.177 69.6911 192.163 69.8369 192.163ZM69.6011 192.73C69.3937 192.73 69.2308 192.781 69.1123 192.884C69.0007 192.984 68.9448 193.118 68.9448 193.287C68.9448 193.613 69.1841 193.921 69.6626 194.21C70.1297 194.493 70.6071 194.634 71.0947 194.634C71.3067 194.634 71.473 194.58 71.5938 194.473C71.7123 194.366 71.7715 194.227 71.7715 194.056C71.7715 193.739 71.5322 193.437 71.0537 193.15C70.5843 192.87 70.1001 192.73 69.6011 192.73ZM67.0684 192.75L68.2442 192.378L68.2442 192.487L67.0684 193.506L67.0684 192.75ZM68.7671 190.115L70.3223 190.57C69.6865 190.144 69.2684 189.818 69.0679 189.592C68.8674 189.364 68.7671 189.146 68.7671 188.936C68.7671 188.822 68.8047 188.729 68.8799 188.656C68.9551 188.581 69.0531 188.543 69.1738 188.543C69.3106 188.543 69.4929 188.576 69.7207 188.642L71.1597 189.059C71.326 189.107 71.4274 189.131 71.4639 189.131C71.4958 189.131 71.5231 189.122 71.5459 189.104C71.5664 189.085 71.5767 189.066 71.5767 189.045C71.5767 189.018 71.5619 188.985 71.5322 188.946C71.4365 188.826 71.2907 188.693 71.0947 188.55L71.1597 188.444C71.4627 188.656 71.6792 188.856 71.8091 189.045C71.898 189.178 71.9424 189.296 71.9424 189.401C71.9424 189.485 71.9162 189.552 71.8638 189.603C71.8137 189.653 71.7453 189.678 71.6587 189.678C71.5493 189.678 71.3613 189.639 71.0947 189.562L69.7207 189.165C69.5498 189.115 69.4165 189.09 69.3208 189.09C69.2752 189.09 69.2388 189.105 69.2114 189.134C69.1818 189.164 69.167 189.2 69.167 189.244C69.167 189.307 69.1944 189.384 69.249 189.473C69.3516 189.641 69.5213 189.817 69.7583 189.999C69.993 190.181 70.2938 190.374 70.6607 190.577C70.8543 190.684 71.0663 190.773 71.2964 190.843L71.8604 191.014L71.8604 191.527L69.7207 190.905C69.4632 190.832 69.3083 190.795 69.2559 190.795C69.2057 190.795 69.1624 190.816 69.126 190.857C69.0873 190.896 69.0679 190.945 69.0679 191.004C69.0679 191.031 69.0724 191.079 69.0816 191.147L69.1021 191.277L68.979 191.298L68.7671 190.115ZM68.979 184.513L69.3345 184.612L69.3345 185.183C69.4575 185.14 69.5726 185.118 69.6797 185.118C69.9805 185.118 70.2482 185.246 70.4829 185.501C70.7176 185.758 70.8475 186.112 70.8726 186.561C70.9455 186.802 71.0321 186.983 71.1323 187.104C71.1688 187.15 71.2064 187.172 71.2451 187.172C71.2907 187.172 71.3329 187.152 71.3716 187.111C71.4081 187.07 71.4457 186.966 71.4844 186.8L71.6382 186.137C71.7248 185.77 71.8273 185.527 71.9458 185.409C72.0666 185.292 72.2056 185.234 72.3628 185.234C72.5497 185.234 72.7206 185.304 72.8755 185.443C73.0305 185.58 73.1512 185.781 73.2378 186.048C73.3267 186.312 73.3711 186.605 73.3711 186.926C73.3711 187.209 73.3369 187.466 73.2686 187.699C73.2025 187.931 73.1125 188.097 72.9985 188.198C72.8846 188.298 72.7673 188.348 72.6465 188.348C72.5485 188.348 72.446 188.315 72.3389 188.249C72.2341 188.185 72.1475 188.104 72.0791 188.006C72.0358 187.945 71.9333 187.771 71.7715 187.483C71.6895 187.588 71.5995 187.641 71.5015 187.641C71.4103 187.641 71.3135 187.595 71.211 187.504C71.1084 187.41 70.9956 187.215 70.8726 186.916C70.8247 187.167 70.7199 187.366 70.5581 187.514C70.3963 187.66 70.2163 187.733 70.0181 187.733C69.6945 187.733 69.4051 187.592 69.1499 187.309C68.8947 187.024 68.7671 186.646 68.7671 186.174C68.7671 186.003 68.7842 185.863 68.8184 185.754C68.8526 185.645 68.9061 185.539 68.979 185.436L68.979 184.513ZM69.5156 185.699C69.3333 185.699 69.1898 185.75 69.085 185.853C68.9802 185.953 68.9277 186.085 68.9277 186.25C68.9277 186.507 69.0576 186.72 69.3174 186.889C69.5749 187.055 69.8438 187.138 70.124 187.138C70.2995 187.138 70.443 187.085 70.5547 186.978C70.6664 186.87 70.7222 186.741 70.7222 186.588C70.7222 186.467 70.6891 186.351 70.6231 186.239C70.557 186.125 70.4658 186.03 70.3496 185.952C70.2334 185.875 70.0853 185.813 69.9053 185.768C69.7253 185.722 69.5954 185.699 69.5156 185.699ZM71.8604 187.336C71.9447 187.521 72.0529 187.661 72.1851 187.757C72.3172 187.85 72.4471 187.897 72.5747 187.897C72.7251 187.897 72.8493 187.829 72.9473 187.692C73.0886 187.496 73.1592 187.209 73.1592 186.831C73.1592 186.505 73.1034 186.227 72.9917 185.997C72.8823 185.764 72.7399 185.648 72.5645 185.648C72.4756 185.648 72.3913 185.691 72.3115 185.778C72.2318 185.862 72.1668 186.027 72.1167 186.273C72.0894 186.408 72.0039 186.762 71.8604 187.336ZM67 181.991L71.9663 184.595L71.9663 184.896L67 182.274L67 181.991ZM67.2256 179.096L67.2256 177.527L67.3521 177.564C67.384 177.785 67.4512 177.979 67.5537 178.146C67.654 178.31 67.8556 178.534 68.1587 178.819L69.3892 180.022L70.6299 179.684C70.7484 179.652 70.9318 179.592 71.1802 179.506C71.3397 179.451 71.4525 179.396 71.5186 179.342C71.5846 179.287 71.6359 179.219 71.6724 179.137C71.7066 179.052 71.7271 178.926 71.7339 178.757L71.8604 178.795L71.8604 180.613L71.7339 180.576C71.7271 180.389 71.6917 180.254 71.6279 180.172C71.5824 180.111 71.5231 180.08 71.4502 180.08C71.3864 180.08 71.2463 180.11 71.0298 180.169L69.8643 180.494L70.9614 181.581C71.1779 181.792 71.3203 181.919 71.3887 181.96C71.4297 181.985 71.4696 181.998 71.5083 181.998C71.5767 181.998 71.6325 181.963 71.6758 181.895C71.694 181.863 71.7134 181.766 71.7339 181.604L71.8604 181.639L71.8604 183.18L71.7339 183.143C71.7157 182.949 71.6712 182.791 71.6006 182.667C71.4935 182.487 71.2805 182.239 70.9614 181.922L69.6079 180.576L68.2715 180.945C67.8613 181.056 67.6096 181.154 67.5161 181.239C67.4204 181.321 67.3657 181.465 67.3521 181.673L67.2256 181.639L67.2256 179.981L67.3521 180.022C67.3521 180.175 67.3623 180.278 67.3828 180.333C67.4011 180.385 67.4307 180.426 67.4717 180.456C67.5104 180.483 67.5549 180.497 67.605 180.497C67.6597 180.497 67.7873 180.47 67.9878 180.415L69.1294 180.101L68.4048 179.373C68.1177 179.085 67.8864 178.888 67.711 178.781C67.6494 178.743 67.5947 178.723 67.5469 178.723C67.4945 178.723 67.4535 178.745 67.4238 178.788C67.3828 178.85 67.3589 178.965 67.3521 179.133L67.2256 179.096ZM68.7671 175.148L71.0845 175.814L71.3955 175.89C71.4251 175.896 71.4502 175.9 71.4707 175.9C71.5072 175.9 71.5391 175.889 71.5664 175.866C71.5869 175.847 71.5972 175.825 71.5972 175.797C71.5972 175.768 71.579 175.729 71.5425 175.681C71.4764 175.592 71.3397 175.474 71.1323 175.326L71.2144 175.209C71.4513 175.367 71.6325 175.528 71.7578 175.695C71.8809 175.861 71.9424 176.015 71.9424 176.156C71.9424 176.254 71.9173 176.328 71.8672 176.378C71.8193 176.426 71.7487 176.45 71.6553 176.45C71.5436 176.45 71.3967 176.425 71.2144 176.375L70.958 176.303C71.3477 176.602 71.62 176.876 71.7749 177.127C71.8866 177.307 71.9424 177.484 71.9424 177.657C71.9424 177.823 71.874 177.967 71.7373 178.087C71.5983 178.208 71.4081 178.269 71.1665 178.269C70.8042 178.269 70.4225 178.16 70.0215 177.944C69.6182 177.725 69.2957 177.448 69.0542 177.113C68.8628 176.851 68.7671 176.604 68.7671 176.372C68.7671 176.233 68.8036 176.118 68.8765 176.026C68.9494 175.933 69.0702 175.862 69.2388 175.814L68.8491 175.691L68.7671 175.148ZM68.9448 176.365C68.9448 176.511 69.0132 176.666 69.1499 176.83C69.3436 177.062 69.6307 177.269 70.0112 177.452C70.3918 177.632 70.7359 177.722 71.0435 177.722C71.1984 177.722 71.3215 177.683 71.4126 177.605C71.5015 177.528 71.5459 177.439 71.5459 177.339C71.5459 177.09 71.3625 176.82 70.9956 176.529C70.508 176.139 70.0078 175.944 69.4951 175.944C69.3014 175.944 69.1613 175.982 69.0747 176.057C68.9881 176.132 68.9448 176.235 68.9448 176.365ZM67.1983 175.097L67.1983 174.994C67.4854 174.987 67.7064 175.048 67.8613 175.175C68.0163 175.303 68.0938 175.452 68.0938 175.623C68.0938 175.789 68.0243 175.982 67.8853 176.201C67.7463 176.417 67.6654 176.55 67.6426 176.601C67.6244 176.639 67.6152 176.684 67.6152 176.734C67.6152 176.818 67.6449 176.887 67.7041 176.939C67.7634 176.989 67.8887 177.03 68.0801 177.062L68.0801 177.171C67.7611 177.155 67.5332 177.087 67.3965 176.966C67.2598 176.846 67.1914 176.7 67.1914 176.529C67.1914 176.362 67.2712 176.16 67.4307 175.92C67.5902 175.679 67.6699 175.514 67.6699 175.425C67.6699 175.345 67.6403 175.28 67.5811 175.23C67.5059 175.164 67.3783 175.119 67.1983 175.097Z" fill="#010101"/>
<line x1="98.75" y1="210" x2="98.75" y2="-1.09278e-08" stroke="black" stroke-opacity="0.5" stroke-width="0.5"/>
<line x1="175.75" y1="210" x2="175.75" y2="-1.09278e-08" stroke="black" stroke-opacity="0.5" stroke-width="0.5"/>
<line x1="210.75" y1="210" x2="210.75" y2="-1.09278e-08" stroke="black" stroke-opacity="0.5" stroke-width="0.5"/>
<line x1="235" y1="210" x2="235" y2="79" stroke="black" stroke-opacity="0.5" stroke-width="0.5"/>
<path d="M276.365 205.975L276.365 202.454L277.596 202.833L277.596 202.963C277.416 202.92 277.255 202.898 277.114 202.898C276.947 202.898 276.822 202.95 276.738 203.052C276.674 203.13 276.642 203.329 276.642 203.65L276.642 204.016L279.834 204.932C280.236 205.048 280.483 205.106 280.576 205.106C280.663 205.106 280.735 205.07 280.792 204.997C280.846 204.924 280.874 204.795 280.874 204.611L280.874 204.454L281 204.495L281 206.511L280.874 206.474L280.874 206.385C280.874 206.207 280.845 206.07 280.788 205.975C280.749 205.909 280.68 205.849 280.58 205.797C280.477 205.742 280.262 205.667 279.934 205.571L276.642 204.611L276.642 204.888C276.642 205.154 276.676 205.37 276.745 205.534C276.813 205.695 276.912 205.826 277.042 205.927C277.172 206.027 277.356 206.109 277.596 206.173L277.596 206.299L276.365 205.975ZM276.55 201.928C276.55 201.832 276.583 201.751 276.649 201.685C276.715 201.619 276.796 201.586 276.892 201.586C276.985 201.586 277.066 201.62 277.134 201.688C277.2 201.755 277.233 201.834 277.233 201.928C277.233 202.021 277.2 202.102 277.134 202.17C277.066 202.236 276.985 202.27 276.892 202.27C276.796 202.27 276.715 202.236 276.649 202.17C276.583 202.104 276.55 202.023 276.55 201.928ZM277.907 201.883L280.303 202.56C280.465 202.606 280.561 202.628 280.593 202.628C280.63 202.628 280.659 202.618 280.682 202.598C280.705 202.575 280.716 202.549 280.716 202.519C280.716 202.485 280.698 202.444 280.662 202.396C280.559 202.266 280.413 202.135 280.224 202.003L280.303 201.883C280.54 202.038 280.739 202.221 280.901 202.43C281.022 202.585 281.082 202.733 281.082 202.875C281.082 202.968 281.055 203.044 281 203.104C280.943 203.163 280.872 203.192 280.788 203.192C280.704 203.192 280.564 203.164 280.368 203.107L278.836 202.663C278.586 202.59 278.429 202.553 278.365 202.553C278.315 202.553 278.274 202.571 278.242 202.608C278.21 202.642 278.194 202.69 278.194 202.751C278.194 202.802 278.206 202.905 278.231 203.062L278.098 203.062L277.907 201.883ZM279.711 200.711C279.825 200.727 279.92 200.735 279.995 200.735C280.198 200.735 280.371 200.663 280.515 200.52C280.656 200.376 280.727 200.202 280.727 199.997C280.727 199.833 280.694 199.675 280.627 199.525C280.559 199.372 280.41 199.147 280.18 198.848L280.279 198.776C280.814 199.316 281.082 199.831 281.082 200.321C281.082 200.654 280.977 200.905 280.768 201.073C280.558 201.242 280.327 201.326 280.074 201.326C279.734 201.326 279.387 201.221 279.031 201.012C278.676 200.802 278.4 200.539 278.204 200.222C278.006 199.905 277.907 199.58 277.907 199.245C277.907 199.003 277.956 198.824 278.054 198.708C278.152 198.592 278.268 198.534 278.402 198.534C278.591 198.534 278.773 198.609 278.946 198.759C279.171 198.958 279.354 199.249 279.493 199.634C279.586 199.889 279.659 200.248 279.711 200.711ZM279.544 200.687C279.505 200.35 279.439 200.075 279.346 199.863C279.22 199.583 279.071 199.373 278.898 199.234C278.722 199.093 278.556 199.022 278.399 199.022C278.303 199.022 278.226 199.053 278.167 199.115C278.107 199.174 278.078 199.259 278.078 199.371C278.078 199.604 278.202 199.851 278.45 200.113C278.696 200.373 279.061 200.564 279.544 200.687ZM276.259 198.701L277.339 198.445L277.339 198.517L276.649 199.094L277.339 200.185L277.339 200.277L276.259 199.214L276.259 198.701ZM274.762 199.498L274.762 198.735L275.904 198.373L275.904 198.493L274.762 199.498ZM277.907 196.89L279.462 197.344C278.826 196.918 278.408 196.592 278.208 196.367C278.007 196.139 277.907 195.92 277.907 195.71C277.907 195.597 277.944 195.503 278.02 195.43C278.095 195.355 278.193 195.317 278.313 195.317C278.45 195.317 278.632 195.35 278.86 195.417L280.299 195.833C280.466 195.881 280.567 195.905 280.604 195.905C280.635 195.905 280.663 195.896 280.686 195.878C280.706 195.86 280.716 195.84 280.716 195.82C280.716 195.792 280.701 195.759 280.672 195.721C280.576 195.6 280.43 195.468 280.234 195.324L280.299 195.218C280.602 195.43 280.819 195.631 280.949 195.82C281.038 195.952 281.082 196.07 281.082 196.175C281.082 196.26 281.056 196.327 281.003 196.377C280.953 196.427 280.885 196.452 280.798 196.452C280.689 196.452 280.501 196.413 280.234 196.336L278.86 195.939C278.689 195.889 278.556 195.864 278.46 195.864C278.415 195.864 278.378 195.879 278.351 195.909C278.321 195.938 278.307 195.975 278.307 196.018C278.307 196.082 278.334 196.158 278.389 196.247C278.491 196.416 278.661 196.591 278.898 196.773C279.133 196.956 279.433 197.148 279.8 197.351C279.994 197.458 280.206 197.547 280.436 197.618L281 197.789L281 198.301L278.86 197.679C278.603 197.606 278.448 197.57 278.396 197.57C278.345 197.57 278.302 197.59 278.266 197.631C278.227 197.67 278.208 197.719 278.208 197.778C278.208 197.806 278.212 197.854 278.221 197.922L278.242 198.052L278.119 198.072L277.907 196.89ZM277.059 191.366L277.989 191.633L277.989 191.096L278.204 191.154L278.204 191.687L280.221 192.275C280.437 192.339 280.577 192.371 280.641 192.371C280.68 192.371 280.709 192.362 280.73 192.344C280.75 192.326 280.761 192.304 280.761 192.279C280.761 192.222 280.721 192.147 280.641 192.053C280.596 191.999 280.455 191.877 280.221 191.687L280.306 191.575C280.611 191.784 280.827 191.983 280.952 192.169C281.039 192.297 281.082 192.426 281.082 192.556C281.082 192.656 281.051 192.738 280.99 192.802C280.926 192.866 280.845 192.897 280.747 192.897C280.624 192.897 280.436 192.861 280.183 192.788L278.204 192.217L278.204 192.733L278.071 192.699C278.002 192.449 277.901 192.24 277.767 192.074C277.63 191.907 277.394 191.722 277.059 191.517L277.059 191.366ZM276.14 189.182L279.458 190.143C278.834 189.728 278.419 189.404 278.214 189.172C278.009 188.939 277.907 188.717 277.907 188.505C277.907 188.396 277.944 188.305 278.02 188.232C278.095 188.159 278.195 188.123 278.32 188.123C278.471 188.123 278.653 188.154 278.867 188.218L280.299 188.635C280.472 188.688 280.568 188.714 280.586 188.714C280.618 188.714 280.645 188.705 280.665 188.687C280.686 188.666 280.696 188.643 280.696 188.618C280.696 188.589 280.681 188.554 280.651 188.516C280.551 188.386 280.412 188.257 280.234 188.129L280.299 188.023C280.42 188.101 280.553 188.209 280.699 188.348C280.843 188.485 280.943 188.603 281 188.704C281.055 188.802 281.082 188.889 281.082 188.967C281.082 189.051 281.055 189.121 281 189.175C280.948 189.228 280.879 189.254 280.795 189.254C280.695 189.254 280.508 189.214 280.234 189.134L278.867 188.741C278.696 188.691 278.562 188.666 278.464 188.666C278.418 188.666 278.382 188.681 278.354 188.71C278.327 188.738 278.313 188.774 278.313 188.82C278.313 188.886 278.339 188.961 278.389 189.045C278.484 189.2 278.662 189.379 278.922 189.582C278.993 189.637 279.277 189.819 279.776 190.129C279.936 190.225 280.11 190.303 280.299 190.365L281 190.583L281 191.096L277.09 189.972L276.666 189.852C276.607 189.852 276.554 189.877 276.509 189.927C276.463 189.975 276.44 190.034 276.44 190.105C276.44 190.146 276.447 190.209 276.461 190.293L276.471 190.365L276.338 190.365L276.14 189.182ZM277.989 184.441L280.026 185.036C280.329 185.125 280.52 185.169 280.6 185.169C280.641 185.169 280.672 185.163 280.692 185.149C280.711 185.133 280.72 185.112 280.72 185.087C280.72 185.049 280.703 185.007 280.668 184.961C280.632 184.913 280.491 184.795 280.245 184.605L280.323 184.503C280.608 184.683 280.818 184.868 280.952 185.057C281.039 185.182 281.082 185.303 281.082 185.419C281.082 185.508 281.057 185.577 281.007 185.627C280.957 185.678 280.892 185.703 280.812 185.703C280.735 185.703 280.632 185.688 280.504 185.658C280.336 185.622 279.969 185.518 279.404 185.347C280.04 185.735 280.478 186.059 280.72 186.321C280.961 186.581 281.082 186.823 281.082 187.046C281.082 187.151 281.046 187.24 280.973 187.312C280.9 187.385 280.807 187.422 280.696 187.422C280.525 187.422 280.263 187.372 279.91 187.271L278.854 186.974C278.601 186.901 278.443 186.865 278.382 186.865C278.354 186.865 278.332 186.875 278.313 186.896C278.293 186.914 278.283 186.934 278.283 186.957C278.283 187.005 278.3 187.053 278.334 187.101C278.368 187.148 278.495 187.257 278.713 187.425L278.638 187.531C278.374 187.36 278.179 187.179 278.054 186.988C277.956 186.842 277.907 186.708 277.907 186.584C277.907 186.5 277.934 186.432 277.989 186.379C278.041 186.325 278.11 186.297 278.194 186.297C278.317 186.297 278.537 186.343 278.854 186.434L279.958 186.755C280.258 186.844 280.449 186.889 280.528 186.889C280.572 186.889 280.607 186.875 280.634 186.848C280.659 186.818 280.672 186.779 280.672 186.731C280.672 186.656 280.634 186.558 280.559 186.437C280.484 186.317 280.318 186.156 280.06 185.956C279.8 185.753 279.558 185.586 279.332 185.457C279.104 185.324 278.743 185.184 278.249 185.036L277.989 184.961L277.989 184.441ZM276.14 180.432L279.458 181.393C278.834 180.978 278.419 180.654 278.214 180.422C278.009 180.189 277.907 179.967 277.907 179.755C277.907 179.646 277.944 179.555 278.02 179.482C278.095 179.409 278.195 179.373 278.32 179.373C278.471 179.373 278.653 179.404 278.867 179.468L280.299 179.885C280.472 179.938 280.568 179.964 280.586 179.964C280.618 179.964 280.645 179.955 280.665 179.937C280.686 179.916 280.696 179.893 280.696 179.868C280.696 179.839 280.681 179.804 280.651 179.766C280.551 179.636 280.412 179.507 280.234 179.379L280.299 179.273C280.42 179.351 280.553 179.459 280.699 179.598C280.843 179.735 280.943 179.853 281 179.954C281.055 180.052 281.082 180.139 281.082 180.217C281.082 180.301 281.055 180.371 281 180.425C280.948 180.478 280.879 180.504 280.795 180.504C280.695 180.504 280.508 180.464 280.234 180.384L278.867 179.991C278.696 179.941 278.562 179.916 278.464 179.916C278.418 179.916 278.382 179.931 278.354 179.96C278.327 179.988 278.313 180.024 278.313 180.07C278.313 180.136 278.339 180.211 278.389 180.295C278.484 180.45 278.662 180.629 278.922 180.832C278.993 180.887 279.277 181.069 279.776 181.379C279.936 181.475 280.11 181.553 280.299 181.615L281 181.833L281 182.346L277.09 181.222L276.666 181.102C276.607 181.102 276.554 181.127 276.509 181.177C276.463 181.225 276.44 181.284 276.44 181.355C276.44 181.396 276.447 181.459 276.461 181.543L276.471 181.615L276.338 181.615L276.14 180.432ZM278.977 175.75C279.318 175.75 279.657 175.841 279.992 176.023C280.327 176.203 280.592 176.455 280.788 176.778C280.984 177.102 281.082 177.416 281.082 177.722C281.082 178.034 280.983 178.289 280.785 178.487C280.584 178.683 280.326 178.781 280.009 178.781C279.674 178.781 279.338 178.686 279 178.494C278.663 178.3 278.397 178.043 278.201 177.722C278.005 177.398 277.907 177.086 277.907 176.785C277.907 176.484 278.006 176.237 278.204 176.043C278.402 175.847 278.66 175.75 278.977 175.75ZM278.741 176.317C278.529 176.317 278.367 176.369 278.255 176.474C278.141 176.577 278.084 176.71 278.084 176.874C278.084 177.209 278.325 177.518 278.806 177.8C279.284 178.081 279.76 178.221 280.234 178.221C280.451 178.221 280.618 178.166 280.737 178.057C280.853 177.947 280.911 177.809 280.911 177.643C280.911 177.322 280.673 177.021 280.197 176.741C279.718 176.458 279.233 176.317 278.741 176.317ZM276.259 175.961L277.339 175.705L277.339 175.777L276.649 176.354L277.339 177.445L277.339 177.537L276.259 176.474L276.259 175.961ZM281.41 178.029C281.41 177.931 281.443 177.849 281.509 177.783C281.578 177.715 281.66 177.681 281.755 177.681C281.851 177.681 281.932 177.715 281.998 177.783C282.066 177.852 282.101 177.934 282.101 178.029C282.101 178.125 282.066 178.207 281.998 178.275C281.932 178.341 281.851 178.375 281.755 178.375C281.66 178.375 281.578 178.341 281.509 178.275C281.443 178.207 281.41 178.125 281.41 178.029ZM277.903 174C277.903 173.904 277.937 173.822 278.006 173.753C278.072 173.685 278.153 173.651 278.249 173.651C278.344 173.651 278.426 173.685 278.495 173.753C278.563 173.822 278.597 173.904 278.597 174C278.597 174.095 278.563 174.177 278.495 174.246C278.426 174.314 278.344 174.348 278.249 174.348C278.153 174.348 278.072 174.314 278.006 174.246C277.937 174.177 277.903 174.095 277.903 174ZM280.378 174.724C280.378 174.628 280.412 174.548 280.48 174.481C280.547 174.415 280.627 174.382 280.723 174.382C280.817 174.382 280.897 174.417 280.966 174.485C281.032 174.551 281.065 174.631 281.065 174.724C281.065 174.82 281.032 174.902 280.966 174.97C280.897 175.036 280.817 175.069 280.723 175.069C280.627 175.069 280.547 175.036 280.48 174.97C280.412 174.902 280.378 174.82 280.378 174.724Z" fill="#010101"/>
<path d="M276.259 111.075L277.76 111.42L277.76 111.543L277.384 111.557C277.247 111.568 277.125 111.594 277.018 111.635C276.911 111.676 276.819 111.738 276.741 111.82C276.661 111.902 276.6 112.006 276.557 112.131C276.511 112.256 276.488 112.395 276.488 112.548C276.488 112.956 276.6 113.312 276.823 113.618C277.108 114.007 277.51 114.313 278.03 114.534C278.458 114.716 278.892 114.807 279.332 114.807C279.781 114.807 280.14 114.676 280.409 114.414C280.675 114.152 280.809 113.811 280.809 113.392C280.809 113.075 280.738 112.794 280.597 112.548C280.455 112.299 280.238 112.069 279.944 111.857L279.944 111.697C280.343 111.947 280.637 112.225 280.826 112.531C281.013 112.836 281.106 113.202 281.106 113.628C281.106 114.006 281.027 114.341 280.87 114.633C280.711 114.924 280.487 115.147 280.2 115.299C279.913 115.452 279.604 115.528 279.274 115.528C278.768 115.528 278.276 115.393 277.797 115.122C277.319 114.85 276.943 114.479 276.669 114.007C276.396 113.533 276.259 113.056 276.259 112.575C276.259 112.35 276.313 112.097 276.42 111.816C276.465 111.693 276.488 111.604 276.488 111.55C276.488 111.495 276.477 111.447 276.454 111.406C276.431 111.365 276.366 111.297 276.259 111.201L276.259 111.075ZM278.652 107.756C278.62 107.687 278.582 107.666 278.539 107.691C278.537 107.691 278.519 107.717 278.484 107.77C278.45 107.82 278.414 107.855 278.375 107.875C278.3 107.921 278.226 107.934 278.153 107.913C278.078 107.895 278.018 107.846 277.975 107.766C277.93 107.686 277.92 107.602 277.948 107.513C277.98 107.413 278.046 107.34 278.146 107.294C278.246 107.247 278.356 107.242 278.474 107.281C278.609 107.326 278.705 107.422 278.765 107.568C278.812 107.689 278.838 107.928 278.84 108.286L280.026 108.631C280.331 108.72 280.523 108.764 280.6 108.764C280.68 108.764 280.72 108.737 280.72 108.682C280.72 108.637 280.703 108.594 280.668 108.556C280.609 108.492 280.468 108.373 280.245 108.2L280.323 108.098C280.829 108.417 281.082 108.722 281.082 109.014C281.082 109.203 280.992 109.297 280.812 109.297C280.739 109.297 280.637 109.283 280.504 109.253C280.322 109.212 279.955 109.108 279.404 108.942C280.019 109.318 280.458 109.641 280.72 109.913C280.961 110.166 281.082 110.408 281.082 110.641C281.082 110.745 281.046 110.834 280.973 110.907C280.9 110.98 280.807 111.017 280.696 111.017C280.527 111.017 280.265 110.966 279.91 110.866L278.854 110.569C278.594 110.496 278.437 110.459 278.382 110.459C278.316 110.459 278.283 110.49 278.283 110.552C278.283 110.606 278.3 110.654 278.334 110.695C278.386 110.757 278.513 110.865 278.713 111.02L278.638 111.126C278.151 110.812 277.907 110.496 277.907 110.179C277.907 109.988 278.002 109.892 278.194 109.892C278.321 109.892 278.541 109.938 278.854 110.029L279.958 110.35C280.263 110.439 280.453 110.483 280.528 110.483C280.624 110.483 280.672 110.431 280.672 110.326C280.672 110.126 280.467 109.866 280.057 109.547C279.799 109.346 279.556 109.18 279.329 109.048C279.085 108.909 278.725 108.77 278.249 108.631L277.989 108.556L277.989 108.036L278.71 108.248C278.712 108.011 278.693 107.847 278.652 107.756ZM278.977 104.273C279.325 104.273 279.664 104.364 279.992 104.546C280.331 104.733 280.597 104.985 280.788 105.302C280.984 105.625 281.082 105.94 281.082 106.245C281.082 106.557 280.983 106.812 280.785 107.011C280.584 107.207 280.326 107.305 280.009 107.305C279.669 107.305 279.332 107.208 278.997 107.014C278.66 106.818 278.394 106.561 278.201 106.242C278.005 105.92 277.907 105.609 277.907 105.309C277.907 105.044 278.006 104.796 278.204 104.563C278.27 104.497 278.336 104.43 278.402 104.362C278.466 104.291 278.498 104.209 278.498 104.116C278.498 104.068 278.49 104.026 278.474 103.989C278.456 103.951 278.429 103.923 278.392 103.907C278.374 103.898 278.356 103.899 278.337 103.911C278.315 103.954 278.26 104.015 278.173 104.095C278.096 104.141 278.021 104.153 277.948 104.133C277.873 104.115 277.813 104.066 277.77 103.986C277.727 103.906 277.718 103.822 277.743 103.733C277.775 103.633 277.841 103.56 277.941 103.514C278.041 103.466 278.151 103.462 278.269 103.5C278.403 103.546 278.5 103.642 278.56 103.788C278.598 103.886 278.618 104.062 278.618 104.317C278.711 104.288 278.831 104.273 278.977 104.273ZM278.741 104.84C278.533 104.84 278.37 104.892 278.252 104.994C278.14 105.094 278.084 105.229 278.084 105.397C278.084 105.723 278.324 106.031 278.802 106.32C279.269 106.603 279.747 106.744 280.234 106.744C280.446 106.744 280.613 106.691 280.733 106.583C280.852 106.476 280.911 106.337 280.911 106.167C280.911 105.85 280.672 105.548 280.193 105.261C279.724 104.98 279.24 104.84 278.741 104.84ZM276.208 104.406L277.38 105.411L277.38 105.527L276.208 105.175L276.208 104.406ZM280.255 101.067C280.54 101.304 280.749 101.543 280.884 101.785C281.016 102.026 281.082 102.281 281.082 102.55C281.082 102.874 280.991 103.127 280.809 103.309C280.626 103.489 280.381 103.579 280.074 103.579C279.725 103.579 279.382 103.482 279.045 103.289C278.708 103.093 278.434 102.831 278.225 102.502C278.013 102.172 277.907 101.848 277.907 101.532C277.907 101.283 277.959 101.098 278.064 100.975C278.167 100.852 278.293 100.79 278.443 100.79C278.585 100.79 278.705 100.833 278.806 100.92C278.883 100.984 278.922 101.062 278.922 101.156C278.922 101.226 278.899 101.286 278.854 101.333C278.808 101.379 278.751 101.402 278.683 101.402C278.639 101.402 278.599 101.394 278.563 101.378C278.527 101.36 278.483 101.324 278.433 101.272C278.381 101.217 278.343 101.184 278.32 101.173C278.298 101.161 278.274 101.156 278.249 101.156C278.201 101.156 278.161 101.177 278.129 101.221C278.083 101.287 278.061 101.38 278.061 101.501C278.061 101.724 278.139 101.945 278.296 102.164C278.454 102.383 278.677 102.57 278.966 102.725C279.317 102.911 279.668 103.005 280.019 103.005C280.251 103.005 280.436 102.939 280.573 102.807C280.707 102.674 280.774 102.494 280.774 102.267C280.774 102.091 280.731 101.918 280.645 101.747C280.556 101.574 280.396 101.38 280.166 101.166L280.255 101.067ZM277.903 99.1733C277.903 99.0776 277.937 98.9956 278.006 98.9272C278.072 98.8589 278.153 98.8247 278.249 98.8247C278.344 98.8247 278.426 98.8589 278.495 98.9272C278.563 98.9956 278.597 99.0776 278.597 99.1733C278.597 99.269 278.563 99.3511 278.495 99.4194C278.426 99.4878 278.344 99.522 278.249 99.522C278.153 99.522 278.072 99.4878 278.006 99.4194C277.937 99.3511 277.903 99.269 277.903 99.1733ZM280.378 99.8979C280.378 99.8022 280.412 99.7214 280.48 99.6553C280.547 99.5892 280.627 99.5562 280.723 99.5562C280.817 99.5562 280.897 99.5903 280.966 99.6587C281.032 99.7248 281.065 99.8045 281.065 99.8979C281.065 99.9937 281.032 100.076 280.966 100.144C280.897 100.21 280.817 100.243 280.723 100.243C280.627 100.243 280.547 100.21 280.48 100.144C280.412 100.076 280.378 99.9937 280.378 99.8979Z" fill="#010101"/>
<line x1="272.75" y1="210" x2="272.75" y2="80" stroke="black" stroke-opacity="0.5" stroke-width="0.5"/>
</g>
<defs>
<clipPath id="clip0">
<rect width="300" height="210" fill="white"/>
</clipPath>
</defs>
</svg>
